<svg width="197" height="82" viewBox="0 0 197 82" fill="none" xmlns="http://www.w3.org/2000/svg">
<path d="M3.14589 54.3307C2.40565 54.3307 1.81218 54.1088 1.36548 53.6651C0.918783 53.2214 0.695435 52.6192 0.695435 51.8585V29.6092C0.695435 28.8739 0.906021 28.3034 1.32719 27.8977C1.74836 27.492 2.32907 27.2891 3.06931 27.2891H12.4882C15.3726 27.2891 17.6189 28.0054 19.227 29.438C20.8351 30.8706 21.6392 32.88 21.6392 35.4663C21.6392 38.0525 20.8351 40.0683 19.227 41.5135C17.6189 42.9588 15.3726 43.6814 12.4882 43.6814H5.63463V51.8585C5.63463 52.6192 5.41128 53.2214 4.96458 53.6651C4.51789 54.1088 3.91165 54.3307 3.14589 54.3307ZM11.8756 39.9161C15.2705 39.9161 16.968 38.4455 16.968 35.5043C16.968 32.5631 15.2705 31.0925 11.8756 31.0925H5.63463V39.9161H11.8756ZM33.3937 54.4067C31.4793 54.4067 29.8009 54.0137 28.3588 53.2277C26.9166 52.4417 25.7998 51.3134 25.0085 49.8428C24.2172 48.3721 23.8216 46.6607 23.8216 44.7083C23.8216 42.7559 24.2172 41.0508 25.0085 39.5928C25.7998 38.1349 26.9166 37.0129 28.3588 36.2269C29.8009 35.4409 31.4793 35.0479 33.3937 35.0479C35.3081 35.0479 36.9864 35.4409 38.4286 36.2269C39.8708 37.0129 40.9811 38.1349 41.7597 39.5928C42.5382 41.0508 42.9275 42.7559 42.9275 44.7083C42.9275 46.6607 42.5382 48.3721 41.7597 49.8428C40.9811 51.3134 39.8708 52.4417 38.4286 53.2277C36.9864 54.0137 35.3081 54.4067 33.3937 54.4067ZM33.3554 50.7175C34.9124 50.7175 36.0994 50.2104 36.9162 49.1962C37.733 48.182 38.1414 46.686 38.1414 44.7083C38.1414 42.7559 37.733 41.2663 36.9162 40.2394C36.0994 39.2125 34.9252 38.6991 33.3937 38.6991C31.8621 38.6991 30.6816 39.2125 29.852 40.2394C29.0224 41.2663 28.6076 42.7559 28.6076 44.7083C28.6076 46.686 29.016 48.182 29.8329 49.1962C30.6497 50.2104 31.8238 50.7175 33.3554 50.7175ZM49.245 54.3307C48.5559 54.3307 47.9879 54.1341 47.5412 53.7411C47.0945 53.3481 46.8712 52.784 46.8712 52.0487V29.3429C46.8712 28.6076 47.0945 28.0498 47.5412 27.6695C47.9879 27.2892 48.5559 27.099 49.245 27.099C49.9342 27.099 50.5086 27.2892 50.968 27.6695C51.4275 28.0498 51.6572 28.6076 51.6572 29.3429V52.0487C51.6572 52.784 51.4275 53.3481 50.968 53.7411C50.5086 54.1341 49.9342 54.3307 49.245 54.3307ZM69.6527 36.4931C69.8569 36.0368 70.1313 35.7008 70.4759 35.4853C70.8205 35.2698 71.197 35.162 71.6054 35.162C72.1925 35.162 72.7222 35.3585 73.1944 35.7515C73.6666 36.1445 73.9027 36.6326 73.9027 37.2158C73.9027 37.4947 73.8261 37.7863 73.673 38.0905L63.2203 59.8454C62.7863 60.7075 62.1099 61.1386 61.191 61.1386C60.6039 61.1386 60.087 60.9547 59.6403 60.5871C59.1936 60.2194 58.9703 59.7567 58.9703 59.1989C58.9703 58.92 59.0469 58.603 59.2 58.2481L61.8036 52.8093L54.682 38.0905C54.5544 37.837 54.4905 37.5454 54.4905 37.2158C54.4905 36.6326 54.7394 36.1382 55.2372 35.7325C55.7349 35.3268 56.3029 35.124 56.941 35.124C57.3749 35.124 57.7706 35.2317 58.1279 35.4472C58.4853 35.6628 58.7661 35.9987 58.9703 36.4551L64.3306 48.2073L69.6527 36.4931ZM98.9816 35.0479C101.024 35.0479 102.587 35.6501 103.672 36.8545C104.757 38.0588 105.299 40.0049 105.299 42.6925V52.0487C105.299 52.784 105.076 53.3481 104.629 53.7411C104.182 54.1341 103.602 54.3307 102.887 54.3307C102.198 54.3307 101.63 54.1341 101.183 53.7411C100.736 53.3481 100.513 52.784 100.513 52.0487V42.6925C100.513 41.298 100.264 40.3028 99.7665 39.7069C99.2687 39.1111 98.5094 38.8132 97.4883 38.8132C96.2376 38.8132 95.2421 39.2379 94.5018 40.0873C93.7616 40.9367 93.3915 42.0967 93.3915 43.5673V52.0487C93.3915 52.784 93.1681 53.3481 92.7214 53.7411C92.2747 54.1341 91.7068 54.3307 91.0176 54.3307C90.3284 54.3307 89.7541 54.1341 89.2946 53.7411C88.8352 53.3481 88.6054 52.784 88.6054 52.0487V42.6925C88.6054 41.298 88.3566 40.3028 87.8588 39.7069C87.3611 39.1111 86.6017 38.8132 85.5807 38.8132C84.3299 38.8132 83.3408 39.2379 82.6133 40.0873C81.8858 40.9367 81.5221 42.0967 81.5221 43.5673V52.0487C81.5221 52.784 81.2924 53.3481 80.8329 53.7411C80.3735 54.1341 79.7991 54.3307 79.1099 54.3307C78.4207 54.3307 77.8528 54.1341 77.4061 53.7411C76.9594 53.3481 76.7361 52.784 76.7361 52.0487V37.3299C76.7361 36.6199 76.9658 36.0748 77.4253 35.6945C77.8847 35.3141 78.459 35.124 79.1482 35.124C79.8119 35.124 80.3543 35.3078 80.7755 35.6754C81.1966 36.0431 81.4072 36.5692 81.4072 37.2538V38.1666C81.9943 37.1524 82.7792 36.379 83.762 35.8466C84.7447 35.3141 85.8742 35.0479 87.1505 35.0479C89.9583 35.0479 91.8344 36.2142 92.7789 38.5469C93.3404 37.482 94.17 36.6326 95.2676 35.9987C96.3652 35.3648 97.6032 35.0479 98.9816 35.0479ZM118.279 35.0479C120.882 35.0479 122.816 35.6881 124.08 36.9686C125.343 38.249 125.975 40.195 125.975 42.8066V52.0867C125.975 52.7713 125.771 53.3101 125.362 53.7031C124.954 54.0961 124.392 54.2926 123.678 54.2926C123.014 54.2926 122.471 54.0898 122.05 53.6841C121.629 53.2784 121.419 52.7459 121.419 52.0867V51.25C120.985 52.2388 120.302 53.0122 119.37 53.57C118.438 54.1278 117.36 54.4067 116.135 54.4067C114.884 54.4067 113.748 54.1532 112.727 53.6461C111.706 53.1389 110.902 52.4417 110.315 51.5542C109.728 50.6668 109.434 49.6779 109.434 48.5877C109.434 47.2185 109.785 46.1409 110.487 45.3549C111.189 44.5688 112.331 43.9983 113.914 43.6434C115.497 43.2884 117.679 43.1109 120.461 43.1109H121.419V42.2361C121.419 40.9937 121.151 40.0873 120.614 39.5168C120.078 38.9463 119.211 38.661 118.011 38.661C117.271 38.661 116.518 38.7688 115.752 38.9843C114.986 39.1998 114.08 39.5104 113.033 39.9161C112.37 40.2457 111.885 40.4105 111.578 40.4105C111.119 40.4105 110.742 40.2457 110.449 39.9161C110.155 39.5865 110.009 39.1555 110.009 38.623C110.009 38.192 110.117 37.818 110.334 37.501C110.551 37.1841 110.915 36.8862 111.425 36.6072C112.319 36.1255 113.384 35.7452 114.622 35.4663C115.86 35.1873 117.079 35.0479 118.279 35.0479ZM117.092 50.9837C118.368 50.9837 119.408 50.559 120.212 49.7096C121.017 48.8602 121.419 47.7636 121.419 46.4198V45.6211H120.729C119.019 45.6211 117.692 45.6971 116.747 45.8493C115.803 46.0014 115.127 46.2676 114.718 46.648C114.31 47.0283 114.105 47.5481 114.105 48.2073C114.105 49.0187 114.393 49.6843 114.967 50.2041C115.541 50.7238 116.25 50.9837 117.092 50.9837ZM141.29 35.124C141.954 35.0732 142.477 35.2127 142.86 35.5423C143.243 35.8719 143.434 36.3664 143.434 37.0256C143.434 37.7102 143.268 38.2173 142.937 38.5469C142.605 38.8766 142.005 39.0921 141.137 39.1935L139.988 39.3076C138.482 39.4597 137.378 39.9668 136.676 40.8289C135.975 41.691 135.624 42.7686 135.624 44.0617V52.0487C135.624 52.784 135.394 53.3481 134.934 53.7411C134.475 54.1341 133.901 54.3307 133.211 54.3307C132.522 54.3307 131.954 54.1341 131.508 53.7411C131.061 53.3481 130.837 52.784 130.837 52.0487V37.3299C130.837 36.6199 131.061 36.0748 131.508 35.6945C131.954 35.3141 132.509 35.124 133.173 35.124C133.837 35.124 134.373 35.3078 134.781 35.6754C135.19 36.0431 135.394 36.5692 135.394 37.2538V38.7751C135.879 37.6595 136.6 36.7974 137.557 36.1889C138.514 35.5804 139.58 35.2381 140.754 35.162L141.29 35.124ZM160.817 35.124C161.532 35.124 162.106 35.3268 162.54 35.7325C162.974 36.1382 163.191 36.6833 163.191 37.3679V58.9327C163.191 59.5919 162.961 60.1243 162.502 60.53C162.042 60.9357 161.455 61.1386 160.741 61.1386C160.026 61.1386 159.458 60.9421 159.037 60.5491C158.616 60.156 158.405 59.6426 158.405 59.0087V51.1739C157.844 52.1881 157.033 52.9805 155.974 53.551C154.914 54.1215 153.721 54.4067 152.394 54.4067C150.76 54.4067 149.318 54.0137 148.067 53.2277C146.816 52.4417 145.84 51.326 145.138 49.8808C144.436 48.4355 144.085 46.7494 144.085 44.8224C144.085 42.8954 144.436 41.1902 145.138 39.7069C145.84 38.2236 146.823 37.0763 148.086 36.2649C149.35 35.4536 150.786 35.0479 152.394 35.0479C153.747 35.0479 154.953 35.3331 156.012 35.9036C157.071 36.4741 157.882 37.2792 158.443 38.3187V37.3679C158.443 36.6833 158.66 36.1382 159.094 35.7325C159.528 35.3268 160.103 35.124 160.817 35.124ZM153.696 50.7175C155.202 50.7175 156.369 50.1977 157.199 49.1582C158.029 48.1186 158.443 46.648 158.443 44.7463C158.443 42.8193 158.029 41.336 157.199 40.2965C156.369 39.2569 155.189 38.7371 153.657 38.7371C152.151 38.7371 150.977 39.2696 150.135 40.3345C149.292 41.3994 148.871 42.8954 148.871 44.8224C148.871 46.6987 149.292 48.1503 150.135 49.1772C150.977 50.2041 152.164 50.7175 153.696 50.7175Z" fill="#070717"/>
<path d="M188.4 28.1935C188.748 28.2482 189.081 28.3669 189.38 28.5431C193.893 31.1992 196.587 35.7813 196.587 40.8012C196.587 45.821 193.893 50.4032 189.38 53.0593L145.329 78.9845C142.822 80.4602 140.036 81.2012 137.242 81.2012C134.701 81.2012 132.155 80.5882 129.805 79.3575C124.872 76.7736 121.926 72.0517 121.926 66.7264V55.7501C122.615 56.2605 123.394 56.534 124.248 56.534C125.769 56.534 126.715 55.5866 127.297 53.971V66.7268C127.297 70.183 129.209 73.2481 132.411 74.9253C135.613 76.6021 139.379 76.5121 142.487 74.6832L159.209 64.8421C159.723 65.1896 160.32 65.3882 160.955 65.3882C162.75 65.3882 164.232 63.8046 164.45 61.7575L186.538 48.7581C189.467 47.034 191.215 44.0597 191.215 40.8016C191.215 37.5435 189.467 34.5693 186.538 32.8451C186.238 32.669 185.979 32.4389 185.774 32.1681C185.569 31.8973 185.422 31.5909 185.343 31.2666C185.263 30.9423 185.252 30.6064 185.31 30.278C185.367 29.9496 185.493 29.6352 185.68 29.3528C185.867 29.0703 186.11 28.8253 186.397 28.6317C186.684 28.4381 187.009 28.2998 187.352 28.2246C187.696 28.1494 188.052 28.1389 188.4 28.1935Z" fill="url(#paint0_linear_2049_3010)"/>
<path d="M126.568 36.7909C126.588 35.6373 126.708 34.8243 127.297 34.4238V14.876C127.297 11.4198 129.209 8.35472 132.411 6.67749C135.613 5.00069 139.379 5.09068 142.487 6.91957L168.131 22.0116C168.43 22.1878 168.763 22.3066 169.111 22.3612C169.459 22.4159 169.815 22.4053 170.158 22.3301C170.502 22.2549 170.826 22.1166 171.113 21.923C171.4 21.7295 171.644 21.4844 171.831 21.202C172.017 20.9195 172.143 20.6051 172.201 20.2767C172.259 19.9483 172.248 19.6124 172.168 19.2881C172.088 18.9638 171.942 18.6575 171.737 18.3866C171.532 18.1158 171.272 17.8857 170.973 17.7096L145.329 2.61793C140.542 -0.199552 134.739 -0.339391 129.805 2.24489C124.872 4.82874 121.926 9.55074 121.926 14.876V33.3182C122.044 33.3014 122.166 33.2928 122.291 33.2928C124.136 33.2928 125.574 34.6602 126.568 36.7909Z" fill="url(#paint1_linear_2049_3010)"/>
<defs>
<linearGradient id="paint0_linear_2049_3010" x1="98.641" y1="0.401184" x2="98.641" y2="81.2012" gradientUnits="userSpaceOnUse">
<stop offset="0.296875" stop-color="#6C63FF"/>
<stop offset="1" stop-color="#C0E8FF"/>
</linearGradient>
<linearGradient id="paint1_linear_2049_3010" x1="98.641" y1="0.401184" x2="98.641" y2="81.2012" gradientUnits="userSpaceOnUse">
<stop offset="0.296875" stop-color="#6C63FF"/>
<stop offset="1" stop-color="#C0E8FF"/>
</linearGradient>
</defs>
</svg>
